#!OML:ASF X:\für Bonn\!DataBase\2005_08_10_Bjorn_Final\c3d\bjorn.ASF
:FULLY-SPECIFIED
:DEGREES
141
root -5.26382 18.7508 -2.02013 421.753 93.9676 426.398
lowerback 7.99454 0.255058 -10.21
upperback 16.066 1.92341 -2.57588
thorax 13.1896 0.428958 2.9722
lowerneck 10.4494 -12.8859 -4.68264
upperneck -2.22828 -16.9992 22.2584
head -0.00475969 -9.1249 7.76405
rclavicle 2.06736e-014 1.11319e-014
rhumerus -28.0632 -18.0084 -86.2934
rradius 41.2104
rwrist 4.8223
rhand -12.0188 18.2843
rfingers 7.12502
rthumb 14.0389 -11.2216
lclavicle 2.06736e-014 1.11319e-014
lhumerus -12.3566 -3.82429 72.0561
lradius 60.8952
lwrist -6.78895
lhand -43.8292 -9.92113
lfingers 7.12502
lthumb -16.6568 19.3842
rfemur -23.2899 -4.53674 12.5604
rtibia 85.9034
rfoot 15.332 9.15744
rtoes -19.1298
lfemur -17.9179 7.59855 -11.5943
ltibia 40.8368
lfoot -10.0436 -12.0226
ltoes -0.471351
142
root -5.20773 18.7472 -2.04966 423.454 93.9675 428.292
lowerback 8.18535 0.254408 -10.2287
upperback 16.1226 1.92158 -2.64666
thorax 13.1511 0.437802 2.90057
lowerneck 10.4262 -12.8815 -4.51488
upperneck -2.19312 -16.9745 22.2368
head -0.0111957 -9.10938 7.73174
rclavicle 5.56597e-015 1.11319e-014
rhumerus -28.1097 -18.1169 -86.3924
rradius 41.2691
rwrist 4.98311
rhand -12.052 18.3875
rfingers 7.12502
rthumb 14.0069 -11.1206
lclavicle 5.56597e-015 1.11319e-014
lhumerus -12.0133 -3.80163 72.0507
lradius 61.1529
lwrist -6.72233
lhand -43.8132 -10.0074
lfingers 7.12502
lthumb -16.6413 19.2992
rfemur -24.5028 -4.96347 12.4829
rtibia 87.2817
rfoot 15.4183 10.0727
rtoes -18.705
lfemur -17.5485 7.64178 -11.5752
ltibia 40.9758
lfoot -10.4011 -11.9686
ltoes -0.760334
143
root -5.15153 18.7434 -2.07646 425.348 93.9681 430.366
lowerback 8.3405 0.25648 -10.2881
upperback 16.1877 1.92621 -2.69224
thorax 13.1452 0.440698 2.87986
lowerneck 10.4109 -12.8501 -4.38523
upperneck -2.20861 -16.9103 22.2344
head -0.0341329 -9.07795 7.71492
rclavicle -1.59028e-014 -3.02153e-014
rhumerus -28.125 -18.2217 -86.4482
rradius 41.2885
rwrist 5.21975
rhand -12.1152 18.4974
rfingers 7.12502
rthumb 13.946 -11.0149
lclavicle -1.59028e-014 -3.02153e-014
lhumerus -11.624 -3.75156 72.0815
lradius 61.3658
lwrist -6.68464
lhand -43.7963 -10.1872
lfingers 7.12502
lthumb -16.6251 19.1208
rfemur -25.729 -5.38639 12.4213
rtibia 88.597
rfoot 15.3458 10.9582
rtoes -19.0927
lfemur -17.1975 7.74532 -11.5552
ltibia 41.1206
lfoot -10.8112 -11.8789
ltoes -1.36813
144
root -5.09612 18.7374 -2.10199 427.222 93.9737 432.446
lowerback 8.51275 0.262863 -10.3609
upperback 16.271 1.93884 -2.73586
thorax 13.152 0.445979 2.86854
lowerneck 10.3079 -12.8174 -4.205
upperneck -2.16261 -16.8501 22.1827
head -0.0328285 -9.03886 7.66566
rclavicle 0 -1.74931e-014
rhumerus -28.0998 -18.3891 -86.507
rradius 41.2786
rwrist 5.5558
rhand -12.1263 18.5751
rfingers 7.12502
rthumb 13.9353 -10.9379
lclavicle 0 -1.74931e-014
lhumerus -11.2121 -3.77128 72.0686
lradius 61.5964
lwrist -6.52358
lhand -43.8653 -10.3622
lfingers 7.12502
lthumb -16.6915 18.9402
rfemur -26.9181 -5.80084 12.3648
rtibia 89.8455
rfoot 15.2033 11.8765
rtoes -19.8272
lfemur -16.8176 7.80984 -11.5239
ltibia 41.27
lfoot -11.1629 -11.7911
ltoes -1.54977
145
root -5.04192 18.7307 -2.12724 428.845 93.968 434.261
lowerback 8.68564 0.26388 -10.4409
upperback 16.3356 1.9403 -2.78606
thorax 13.1367 0.446045 2.85342
lowerneck 10.2668 -12.7554 -4.0573
upperneck -2.14751 -16.746 22.1692
head -0.0506436 -8.98362 7.64086
rclavicle 1.43125e-014 3.18055e-015
rhumerus -28.1439 -18.4661 -86.5616
rradius 41.3334
rwrist 5.79762
rhand -12.112 18.5433
rfingers 7.12502
rthumb 13.949 -10.9687
lclavicle 1.43125e-014 3.18055e-015
lhumerus -10.8177 -3.78027 72.0706
lradius 61.793
lwrist -6.47303
lhand -43.9064 -10.611
lfingers 7.12502
lthumb -16.7311 18.6881
rfemur -28.1327 -6.25069 12.2829
rtibia 91.0309
rfoot 15.0396 12.8044
rtoes -20.6161
lfemur -16.472 7.85689 -11.5262
ltibia 41.4298
lfoot -11.5248 -11.6522
ltoes -1.83242
146
root -4.98647 18.7254 -2.15128 430.575 93.9859 436.183
lowerback 8.80975 0.263581 -10.5201
upperback 16.4299 1.94884 -2.80589
thorax 13.1871 0.443958 2.87251
lowerneck 10.1288 -12.6793 -3.95314
upperneck -2.0701 -16.6433 22.1399
head -0.031549 -8.91935 7.60634
rclavicle -4.77083e-015 -1.90833e-014
rhumerus -28.1064 -18.5053 -86.5946
rradius 41.3412
rwrist 5.95043
rhand -12.1285 18.5023
rfingers 7.12502
rthumb 13.9332 -11.0109
lclavicle -4.77083e-015 -1.90833e-014
lhumerus -10.3686 -3.79564 72.1201
lradius 61.9726
lwrist -6.37959
lhand -43.9702 -10.8543
lfingers 7.12502
lthumb -16.7925 18.4395
rfemur -29.3103 -6.65164 12.2343
rtibia 92.1378
rfoot 14.8421 13.7121
rtoes -21.2227
lfemur -16.1092 7.88599 -11.5016
ltibia 41.5869
lfoot -11.9325 -11.5189
ltoes -2.31842
147
root -4.93291 18.7172 -2.17549 432.193 94.0299 437.983
lowerback 8.96307 0.262838 -10.5704
upperback 16.5009 1.94426 -2.80214
thorax 13.1896 0.438109 2.90116
lowerneck 10.0538 -12.5912 -3.9516
upperneck -2.02095 -16.5312 22.1783
head -0.0176929 -8.8566 7.6138
rclavicle -1.59028e-015 4.77083e-015
rhumerus -28.1226 -18.551 -86.572
rradius 41.3583
rwrist 6.14705
rhand -12.0886 18.4503
rfingers 7.12502
rthumb 13.9716 -11.0602
lclavicle -1.59028e-015 4.77083e-015
lhumerus -9.92249 -3.81938 72.2314
lradius 62.1069
lwrist -6.38128
lhand -44.101 -11.0062
lfingers 7.12502
lthumb -16.9184 18.2769
rfemur -30.521 -7.08046 12.2027
rtibia 93.2148
rfoot 14.6035 14.6745
rtoes -22.1626
lfemur -15.7821 7.91613 -11.4578
ltibia 41.7516
lfoot -12.3037 -11.3728
ltoes -2.83071
148
root -4.87869 18.71 -2.19935 433.526 94.0115 439.517
lowerback 9.0964 0.256339 -10.6752
upperback 16.6018 1.94619 -2.83141
thorax 13.2462 0.430754 2.92333
lowerneck 9.90076 -12.4936 -3.85446
upperneck -1.93989 -16.4014 22.1418
head 0.00138162 -8.77731 7.57774
rclavicle -1.43125e-014 -2.8625e-014
rhumerus -28.065 -18.5859 -86.5874
rradius 41.3614
rwrist 6.2682
rhand -11.9939 18.2967
rfingers 7.12502
rthumb 14.0629 -11.2075
lclavicle -1.43125e-014 -2.8625e-014
lhumerus -9.44665 -3.80508 72.3391
lradius 62.2345
lwrist -6.33466
lhand -44.2023 -11.332
lfingers 7.12502
lthumb -17.0159 17.9427
rfemur -31.688 -7.47055 12.0746
rtibia 94.2183
rfoot 14.432 15.6303
rtoes -22.7988
lfemur -15.4131 7.89702 -11.4995
ltibia 41.9035
lfoot -12.7067 -11.1415
ltoes -3.42434
149
root -4.82474 18.7027 -2.22329 435.22 94.038 441.402
lowerback 9.22515 0.270375 -10.7157
upperback 16.692 1.97158 -2.84275
thorax 13.2851 0.441331 2.93092
lowerneck 9.77581 -12.3988 -3.73419
upperneck -1.86724 -16.2685 22.1154
head 0.0120062 -8.69851 7.54432
rclavicle 7.95139e-015 2.22639e-014
rhumerus -28.0462 -18.6258 -86.5714
rradius 41.3527
rwrist 6.35511
rhand -11.9329 18.1711
rfingers 7.12502
rthumb 14.1217 -11.329
lclavicle 7.95139e-015 2.22639e-014
lhumerus -8.92616 -3.84498 72.4833
lradius 62.323
lwrist -6.31646
lhand -44.2961 -11.6809
lfingers 7.12502
lthumb -17.1062 17.586
rfemur -32.8555 -7.82346 11.9929
rtibia 95.1426
rfoot 14.29 16.4879
rtoes -23.0272
lfemur -15.0536 7.85185 -11.4886
ltibia 42.0545
lfoot -13.1253 -10.8977
ltoes -3.98089
150
root -4.77142 18.6952 -2.24638 436.706 94.0208 443.077
lowerback 9.34918 0.277317 -10.8305
upperback 16.778 1.98473 -2.84149
thorax 13.3261 0.435085 2.99268
lowerneck 9.6768 -12.2742 -3.68019
upperneck -1.78995 -16.1047 22.0627
head 0.019035 -8.60482 7.51524
rclavicle -7.95139e-015 -1.27222e-014
rhumerus -28.0315 -18.6501 -86.5064
rradius 41.3477
rwrist 6.46929
rhand -11.8048 18.0297
rfingers 7.12502
rthumb 14.2451 -11.4618
lclavicle -7.95139e-015 -1.27222e-014
lhumerus -8.45148 -3.81594 72.6854
lradius 62.4313
lwrist -6.38841
lhand -44.3815 -11.9618
lfingers 7.12502
lthumb -17.1885 17.2979
rfemur -34.0145 -8.12868 11.8388
rtibia 95.9918
rfoot 14.224 17.2721
rtoes -22.8621
lfemur -14.6908 7.82743 -11.5382
ltibia 42.1856
lfoot -13.4953 -10.6566
ltoes -4.58876
151
root -4.71789 18.6884 -2.26924 438.261 94.0768 444.833
lowerback 9.49009 0.294708 -10.805
upperback 16.877 2.01725 -2.86172
thorax 13.3662 0.458758 2.95438
lowerneck 9.51857 -12.1785 -3.51719
upperneck -1.69182 -15.9705 22.0152
head 0.0375837 -8.52128 7.46557
rclavicle -1.90833e-014 -3.33958e-014
rhumerus -27.9915 -18.7471 -86.4861
rradius 41.2879
rwrist 6.49757
rhand -11.69 17.935
rfingers 7.12502
rthumb 14.3557 -11.5486
lclavicle -1.90833e-014 -3.33958e-014
lhumerus -7.88499 -3.92037 72.8109
lradius 62.4852
lwrist -6.42206
lhand -44.4483 -12.2499
lfingers 7.12502
lthumb -17.2528 17.0043
rfemur -35.1255 -8.42062 11.7602
rtibia 96.7445
rfoot 14.1865 17.9827
rtoes -22.3542
lfemur -14.3059 7.73492 -11.5071
ltibia 42.3051
lfoot -13.8973 -10.3713
ltoes -5.13787
152
root -4.66417 18.6813 -2.29213 439.681 94.1114 446.465
lowerback 9.63722 0.300894 -10.8205
upperback 16.9642 2.02891 -2.87146
thorax 13.3916 0.466252 2.94945
lowerneck 9.4038 -12.0533 -3.41388
upperneck -1.57462 -15.806 21.9382
head 0.0531611 -8.42305 7.41923
rclavicle -1.74931e-014 -2.54444e-014
rhumerus -27.9848 -18.8244 -86.4173
rradius 41.2089
rwrist 6.53069
rhand -11.5452 17.8797
rfingers 7.12502
rthumb 14.4952 -11.594
lclavicle -1.74931e-014 -2.54444e-014
lhumerus -7.38785 -3.90299 73.0108
lradius 62.5742
lwrist -6.6213
lhand -44.47 -12.4235
lfingers 7.12502
lthumb -17.2736 16.8288
rfemur -36.1977 -8.68609 11.6525
rtibia 97.3956
rfoot 14.1008 18.6346
rtoes -21.9464
lfemur -13.8946 7.62484 -11.5148
ltibia 42.4073
lfoot -14.2867 -10.0596
ltoes -5.81109
153
root -4.61031 18.6749 -2.31346 441.391 94.1272 448.361
lowerback 9.75028 0.323572 -10.8517
upperback 17.0514 2.06771 -2.88536
thorax 13.4349 0.484535 2.9494
lowerneck 9.28685 -11.9425 -3.26855
upperneck -1.48751 -15.6517 21.8361
head 0.0567482 -8.33151 7.35966
rclavicle -2.54444e-014 -5.88403e-014
rhumerus -27.9587 -18.942 -86.3448
rradius 41.0841
rwrist 6.59615
rhand -11.4216 17.9218
rfingers 7.12502
rthumb 14.6143 -11.5433
lclavicle -2.54444e-014 -5.88403e-014
lhumerus -6.84358 -3.95482 73.181
lradius 62.6528
lwrist -6.75772
lhand -44.4459 -12.5773
lfingers 7.12502
lthumb -17.2504 16.6771
rfemur -37.2903 -8.91167 11.5564
rtibia 97.9567
rfoot 13.9309 19.2218
rtoes -21.7714
lfemur -13.4995 7.50963 -11.5412
ltibia 42.4937
lfoot -14.643 -9.72802
ltoes -6.08522
154
root -4.55675 18.6688 -2.33558 442.612 94.1446 449.759
lowerback 9.87438 0.335814 -10.8732
upperback 17.1192 2.08651 -2.89994
thorax 13.4487 0.495208 2.94279
lowerneck 9.15444 -11.823 -3.20065
upperneck -1.3049 -15.5104 21.789
head 0.103242 -8.23975 7.32302
rclavicle -2.54444e-014 -3.97569e-014
rhumerus -27.9557 -19.0766 -86.2559
rradius 40.9226
rwrist 6.60254
rhand -11.2805 17.975
rfingers 7.12502
rthumb 14.7502 -11.4802
lclavicle -2.54444e-014 -3.97569e-014
lhumerus -6.34179 -4.01398 73.352
lradius 62.7353
lwrist -6.9229
lhand -44.4265 -12.7024
lfingers 7.12502
lthumb -17.2317 16.5535
rfemur -38.3442 -9.18706 11.4487
rtibia 98.3988
rfoot 13.6348 19.8077
rtoes -21.9739
lfemur -13.1251 7.33816 -11.5899
ltibia 42.5708
lfoot -14.9895 -9.38019
ltoes -6.57602
155
root -4.50256 18.6631 -2.35627 444.296 94.1688 451.628
lowerback 9.99247 0.356612 -10.8975
upperback 17.1908 2.11625 -2.90111
thorax 13.4692 0.509058 2.95272
lowerneck 9.03224 -11.6953 -3.15189
upperneck -1.1569 -15.3555 21.7207
head 0.136312 -8.14386 7.28524
rclavicle 1.74931e-014 2.06736e-014
rhumerus -27.968 -19.1574 -86.1464
rradius 40.8087
rwrist 6.5954
rhand -11.1518 18.0173
rfingers 7.12502
rthumb 14.8743 -11.4288
lclavicle 1.74931e-014 2.06736e-014
lhumerus -5.84171 -4.03006 73.5464
lradius 62.7865
lwrist -7.09449
lhand -44.3822 -12.8311
lfingers 7.12502
lthumb -17.1891 16.4286
rfemur -39.3503 -9.37627 11.3806
rtibia 98.7188
rfoot 13.2761 20.2622
rtoes -22.2188
lfemur -12.7175 7.17613 -11.6271
ltibia 42.6368
lfoot -15.347 -9.01373
ltoes -6.86421
